<?xml version="1.0" encoding="utf-8"?>
<!-- Generator: Adobe Illustrator 26.0.3, SVG Export Plug-In . SVG Version: 6.00 Build 0)  -->
<svg version="1.1" id="Layer_1" xmlns="http://www.w3.org/2000/svg" xmlns:xlink="http://www.w3.org/1999/xlink" x="0px" y="0px"
	 viewBox="0 0 4000 4000" style="enable-background:new 0 0 4000 4000;" xml:space="preserve">
<style type="text/css">
	
		.st0{clip-path:url(#SVGID_00000020389301419185033830000005344864010640974767_);fill:url(#SVGID_00000178890612180740365280000002210325776614906526_);}
	.st1{clip-path:url(#SVGID_00000010290799883406568620000013413922535199122873_);fill:#F7B497;}
	.st2{clip-path:url(#SVGID_00000154415344768268912890000016327095359259728817_);fill:#F59BA6;}
	.st3{clip-path:url(#SVGID_00000018931175631486038080000006562909296255622322_);fill:#D290A6;}
	.st4{clip-path:url(#SVGID_00000069392317851797351110000002399134843958117005_);fill:#AC8AAB;}
	.st5{clip-path:url(#SVGID_00000111894322115746390780000010652449601310639259_);fill:#7F6F90;}
	.st6{clip-path:url(#SVGID_00000114760350209756950900000003384588929386911360_);fill:#645475;}
	.st7{opacity:0.28;fill:#D5CCE5;}
</style>
<g>
	<g>
		<defs>
			<rect id="SVGID_1_" width="4000" height="4000"/>
		</defs>
		<clipPath id="SVGID_00000158730944863970098870000011489143540703371419_">
			<use xlink:href="#SVGID_1_"  style="overflow:visible;"/>
		</clipPath>
		
			<linearGradient id="SVGID_00000143589065382286378660000001180364600964995719_" gradientUnits="userSpaceOnUse" x1="2000" y1="1691.616" x2="2000" y2="3316.084" gradientTransform="matrix(1 0 0 -1 0 4000)">
			<stop  offset="0" style="stop-color:#F0BAA6"/>
			<stop  offset="0.1255" style="stop-color:#CCA49C"/>
			<stop  offset="0.3473" style="stop-color:#9B8891"/>
			<stop  offset="0.5535" style="stop-color:#787589"/>
			<stop  offset="0.7374" style="stop-color:#5E6A83"/>
			<stop  offset="0.8925" style="stop-color:#4D6480"/>
			<stop  offset="1" style="stop-color:#47627F"/>
		</linearGradient>
		
			<rect style="clip-path:url(#SVGID_00000158730944863970098870000011489143540703371419_);fill:url(#SVGID_00000143589065382286378660000001180364600964995719_);" width="4000" height="4000"/>
	</g>
	<g>
		<defs>
			<rect id="SVGID_00000028283410310538442550000010537604228464231325_" width="4000" height="4000"/>
		</defs>
		<clipPath id="SVGID_00000070807940535443080650000007721443835230485377_">
			<use xlink:href="#SVGID_00000028283410310538442550000010537604228464231325_"  style="overflow:visible;"/>
		</clipPath>
		<path style="clip-path:url(#SVGID_00000070807940535443080650000007721443835230485377_);fill:#F7B497;" d="M4356.6,2274.9
			c19.1,69-3.5,142.6-60.2,179.4c-52.1,33.8-118.5,27-168.6-11.7c-25.2,32.2-59.9,57.5-101.7,71.1c-72.4,23.7-148.3,6.7-203-38.4
			c-56.1,57.8-130.6,98.6-216.2,112.2c-74.1,11.8-146.7,1.7-211.1-25.6c-9.7,74.3-67.1,136.5-144.8,148.9
			c-80.3,12.8-156.5-31.6-187-103.2c-20.1,10.6-42.2,18.1-65.9,21.9c-116.2,18.5-225.4-60.6-244-176.8c-1.9-12.2-2.8-24.3-2.7-36.3
			c-40.9,62.6-107,108.4-186.6,121.1c-69.4,11.1-136.9-4.9-191.7-40.2c-49.3,96.8-156.1,171-290.9,188.8
			c-167.9,22.1-327.7-50.1-400.1-169.4c-21.7,9.8-45,16.9-69.6,20.8c-120.1,19.2-234.3-42.7-287.2-145.2
			c-18.3,18.7-42.5,31.9-70.3,36.3c-54.4,8.7-106.2-18.8-131-64.6c-38.4,86.6-118.6,152.7-219.1,168.8
			c-54.5,8.7-107.8,1.6-155.4-17.9C679,2616.2,558.8,2692.9,414,2716c-194.6,31.1-377.2-43.6-467.9-175.9
			c-137.5,17.5-266.1-64.9-310.1-192.5c-7.7,2-15.5,3.7-23.6,5c-131.4,21-254.9-68.5-275.8-199.9c-21-131.4,68.5-254.9,199.9-275.8
			c8.2-1.3,16.4-2.2,24.6-2.7c33.5-60.2,87.9-115.7,159.7-156.9c101.2-58.1,215.2-75.6,311.7-55.7c61.7-50.7,144.6-84.1,237.3-89.6
			c120.5-7.1,230.1,34.6,301.2,104.7c46.4-19.7,98.1-32.1,153-35.4c113.9-6.8,218.8,27.4,294,87.4c44.6-42.7,102.1-72.8,167.7-83.2
			c62.3-9.9,123.2-0.8,176.9,23c41.2-56.9,104.1-98,179-110c77.5-12.4,152.7,9,210.4,53.4c52-29.4,112.9-50,179.9-58.6
			c140.8-18,276.5,20.9,370.6,95.7c37.5-32.9,84.5-56,137.4-64.4c87.9-14,172.8,15.4,232.6,72.4c33.4-5.1,66.4-3.6,97.5,3.6
			c36.1-1.8,74.5,8.9,108.1,32.8c54-83.4,141.8-144.5,247.7-161.4c99-15.8,195,10,270.2,64.5c29.4-34.4,70.7-58.9,118.9-66.6
			c81.9-13.1,160.1,26.2,200.4,93.2c13.7-4.2,27.8-7.5,42.3-9.8c98.1-15.7,192.7,16.7,260,79.6c48.3-66,145.5-75.4,218.7-20.4
			c47,35.3,72.9,88.6,73.4,140.3c84.3,31.7,149.6,106.6,164.9,201.9C4491.6,2120.2,4441.9,2221.3,4356.6,2274.9z"/>
	</g>
	<g>
		<defs>
			<rect id="SVGID_00000036250030450178171110000012141311542229584782_" width="4000" height="4000"/>
		</defs>
		<clipPath id="SVGID_00000178903589597346901530000007531259019445168304_">
			<use xlink:href="#SVGID_00000036250030450178171110000012141311542229584782_"  style="overflow:visible;"/>
		</clipPath>
		<path style="clip-path:url(#SVGID_00000178903589597346901530000007531259019445168304_);fill:#F59BA6;" d="M-717.4,2218.4
			c10.6-1.3,21-1.9,31.4-1.8c17.9-87.2,88-158.5,181.2-173.3c0.2,0,0.5-0.1,0.7-0.1c7.9-57.9,52.8-106.2,113.4-115.9
			c51.6-8.2,101.1,13.7,130.5,52.9c35.6-27.6,78.4-46.9,126-54.6c56.4-9,111.6-0.3,159.8,22.1c32.8-15,69.6-25.6,109.5-30.5
			c152.4-18.9,296.6,51.2,344.8,160.8c18.9-11.2,40.1-19.1,63.1-22.8c50.6-8.1,99.6,5.9,137.2,34.9
			c22.6-86.4,94.2-155.7,188.1-170.7c75.1-12,147.5,13.5,198.2,62.6c25.1-32.8,62.4-56.4,106.4-63.4c38.2-6.1,75.5,1.3,107,18.6
			c23.6-45.6,67.8-79.8,122.3-88.5c76.9-12.3,150,30,179.8,98.3c23.4-11.3,48.9-19.5,75.9-23.8c141-22.5,274,66.9,308.6,202.6
			c19.4-20.7,46.6-34.1,77.2-35.1c26.3-0.9,50.7,7.6,70.1,22.2c46.5-65.6,122.1-109.5,208.8-112.3c11.3-0.4,22.5,0,33.4,1
			c72.3-125.8,206.1-212.3,361.7-217.4c122.3-4,234.3,43.2,315.7,122.2c16.7-37.6,53.7-64.3,97.5-65.8c61-2,112.1,45.9,114.1,106.9
			c0.1,2,0.1,4,0,6c99.8,13.5,182.7,82.6,215.4,175.8c1.4-0.3,2.9-0.5,4.3-0.8c31.1-29.2,70.9-49.8,116.2-57c0.2,0,0.5-0.1,0.7-0.1
			c7.9-57.9,52.8-106.2,113.4-115.9c51.6-8.2,101.1,13.7,130.5,52.9c35.6-27.6,78.4-46.9,126-54.6c56.4-9,111.6-0.3,159.8,22.1
			c32.8-15,69.6-25.6,109.5-30.5c152.4-18.9,296.6,51.2,344.8,160.8c18.9-11.2,40.1-19.1,63.1-22.8
			c97.5-15.6,189.1,50.9,204.7,148.4c1.4,8.9,2.1,17.7,2.2,26.4c65,1.6,121.6,49.3,132.2,115.8c12,75-39.1,145.5-114.1,157.5
			c-16.6,2.7-33.1,2.2-48.7-0.9c-7.3,77.2-65.8,142.6-145.9,155.4c-17.5,2.8-34.8,2.9-51.5,0.5c-67.9,90.8-200.7,159.4-365.9,176.5
			c-192.2,19.9-376.1-35.2-481.1-132c-34.6,8.8-74,11.6-115.9,7c-69.2-7.6-132.1-34-178.1-70.5c-46.1,69.1-123.7,115.6-213,118.5
			c-21.9,0.7-43.2-1.3-63.7-5.6c-58,76.6-148.7,127.2-252.2,130.6c-79.7,2.6-153.7-23.4-212.2-68.6c-57.1,22.1-124,34.1-196.6,33
			c-222.2-3.4-416.1-128.9-443.7-283.7c-2.4,0.2-4.9,0.3-7.4,0.4c-15.2,0.5-30-1-44.1-4.3c-1,0.2-2,0.4-3,0.5
			c-26.8,4.3-53.2,3.3-78.3-2.2c-11.4,140.7-162.8,252.1-347.8,252.1c-105.5,0-200.1-36.2-264-93.4c-81.7,69.7-206.8,106.2-341,89.3
			c-158.1-20-285.5-108.8-336-220.3c-24.3,22.4-55.3,38.2-90.4,43.8c-17.5,2.8-34.8,2.9-51.5,0.5
			c-67.9,90.8-200.7,159.4-365.9,176.5c-192.2,19.9-376.1-35.2-481-132c-34.6,8.8-74,11.6-115.9,7
			c-139.3-15.3-253.2-106.7-254.4-204.2c0-1.3,0-2.5,0-3.8c-85.7-2.4-160.1-51.6-174.1-120.1C-885.3,2304-817.3,2230.9-717.4,2218.4
			z"/>
	</g>
	<g>
		<defs>
			<rect id="SVGID_00000169536805860734859730000015053137770017125795_" width="4000" height="4000"/>
		</defs>
		<clipPath id="SVGID_00000167357745304138173150000004008793803580386490_">
			<use xlink:href="#SVGID_00000169536805860734859730000015053137770017125795_"  style="overflow:visible;"/>
		</clipPath>
		<path style="clip-path:url(#SVGID_00000167357745304138173150000004008793803580386490_);fill:#D290A6;" d="M4250.3,2884.7
			c2.4,10.3,3.7,21.1,3.7,32.2c0,77.6-62.9,140.6-140.6,140.6c-24.5,0-47.5-6.3-67.6-17.3c-33.9,85.3-117.2,145.6-214.6,145.6
			c-58.7,0-112.3-21.9-153-58c-43.2,69.9-120.6,116.5-208.8,116.5c-112.4,0-207.1-75.5-236.1-178.6c-11.2,5.3-23.8,8.3-37.1,8.3
			c-48.1,0-87.1-39-87.1-87.1c0-3.1,0.2-6.2,0.5-9.2c-39.3-11.1-74.5-31.8-103.1-59.3c-31,48.1-81.6,83.3-142.5,93.1
			c-8.6,1.4-17.1,2.2-25.5,2.5c0.6,2.5,1.2,5.1,1.6,7.7c8.4,52.6-27.5,102.1-80.1,110.5c-40.2,6.4-78.5-13-98.1-45.9
			c-22,14.8-46,27.8-71.9,38.6c-128,53.6-263.1,38.2-343.9-29.8c-59.5,71.9-149.8,117.3-250.4,116.1c-73.3-0.8-140.5-26.2-194-68.2
			c-14.1,24-38.4,41.7-68,46.4c-52.6,8.4-102.1-27.5-110.5-80.1c-2.3-14.5-1.2-28.8,2.6-42c-17.5,2.8-35.5,4.1-53.8,3.9
			c-102.8-1.1-193.7-50.6-251.4-126.5c-34.8,26.9-89.5,28.5-137.8,1.8c-38.2,58.8-104.8,97.4-180.1,96.6c-38.2-0.4-74-11-104.7-29
			c-61.5,56.6-143.8,90.8-233.9,89.8c-41-0.5-80.2-8.2-116.5-21.9c-10.3,29.1-30.5,52.1-58.1,62.3c-45.8,16.8-97.8-7-128.3-54.4
			c-47.2,29.3-103,46-162.6,45.3c-110.1-1.2-205.7-61.2-257.5-149.7c-48.2,31-106.8,31.6-142.3-2.4c-39.5-37.7-36.8-104.8,4-156
			c-56.2-27.5-94.6-85.5-93.8-152.3c0.5-42,16.4-80.3,42.3-109.4c-20.8-49.9,6.6-112.3,64.5-143.1c43.3-23,92.1-22.3,126.8-1.9
			c51.7-56.1,136.9-98.9,237.8-112.6c76.4-10.3,149.5-2.2,209.7,19.8c51.8-42.9,130.2-71,219.2-73c111.3-2.4,210.2,36.9,262.9,96.8
			c43.9-11.6,93.8-15.6,146.3-9.9c91.4,9.9,170.7,46.8,220.7,96.7c1.4-0.3,2.8-0.5,4.3-0.8c29-4.6,57.3-1,82.8,9
			c33.9-76.4,127.4-136.7,248.6-150.1c66.6-7.4,131.5,0.5,187.6,19.9c103.3-82.2,257.5-134.5,429.9-134.5
			c190.8,0,359.4,64,461.3,161.9c30.9-29.2,70.6-49.7,115.7-56.9c85.3-13.6,167,24.1,213.6,90.3c33.4-12.1,74.3-15.6,117.9-8.1
			c8.9,1.5,17.7,3.5,26.3,5.8c50.8-94.7,150.8-159.2,265.8-159.2c47.1,0,91.6,10.8,131.3,30c26.5-28.2,69.1-46.5,117.1-46.5
			c47.9,0,90.4,18.2,116.9,46.3c33-14.7,69.6-22.9,108.1-22.9c119.7,0,221,79.2,254.1,188.2c131.7,15.7,233.9,127.7,233.9,263.7
			C4354,2759.9,4313.4,2836.2,4250.3,2884.7z"/>
	</g>
	<g>
		<defs>
			<rect id="SVGID_00000062177581415932610570000010767394988703339196_" width="4000" height="4000"/>
		</defs>
		<clipPath id="SVGID_00000070816761134305958400000011512266692921430660_">
			<use xlink:href="#SVGID_00000062177581415932610570000010767394988703339196_"  style="overflow:visible;"/>
		</clipPath>
		<path style="clip-path:url(#SVGID_00000070816761134305958400000011512266692921430660_);fill:#AC8AAB;" d="M4250.3,2881.4
			c2.4-10.3,3.7-21.1,3.7-32.2c0-77.6-62.9-140.6-140.6-140.6c-24.5,0-47.5,6.3-67.6,17.3c-33.9-85.3-117.2-145.6-214.6-145.6
			c-58.7,0-112.3,21.9-153,58c-43.2-69.9-120.6-116.5-208.8-116.5c-112.4,0-207.1,75.5-236.1,178.6c-11.2-5.3-23.8-8.3-37.1-8.3
			c-48.1,0-87.1,39-87.1,87.1c0,3.1,0.2,6.2,0.5,9.2c-39.3,11.1-74.5,31.8-103.1,59.3c-31-48.1-81.6-83.3-142.5-93.1
			c-8.6-1.4-17.1-2.2-25.5-2.5c0.6-2.5,1.2-5.1,1.6-7.7c8.4-52.6-27.5-102.1-80.1-110.5c-40.2-6.4-78.5,13-98.1,45.9
			c-22-14.8-46-27.8-71.9-38.6c-128-53.6-263.1-38.2-343.9,29.8c-59.5-71.9-149.8-117.3-250.4-116.1c-73.3,0.8-140.5,26.2-194,68.2
			c-14.1-24-38.4-41.7-68-46.4c-52.6-8.4-102.1,27.5-110.5,80.1c-2.3,14.5-1.2,28.8,2.6,42c-17.5-2.8-35.5-4.1-53.8-3.9
			c-102.8,1.1-193.7,50.6-251.4,126.5c-34.8-26.9-89.5-28.5-137.8-1.8c-38.2-58.8-104.8-97.4-180.1-96.6c-38.2,0.4-74,11-104.7,29
			c-61.5-56.6-143.8-90.8-233.9-89.8c-41,0.5-80.2,8.2-116.5,21.9c-10.3-29.1-30.5-52.1-58.1-62.3c-45.8-16.8-97.8,7-128.3,54.4
			c-47.2-29.3-103-46-162.6-45.3c-110.1,1.2-205.7,61.2-257.5,149.7c-48.2-31-106.8-31.6-142.3,2.4c-39.5,37.7-36.8,104.8,4,156
			c-56.2,27.5-94.6,85.5-93.8,152.3c0.5,42,16.4,80.3,42.3,109.4c-20.8,49.9,6.6,112.3,64.5,143.1c43.3,23,92.1,22.3,126.8,1.9
			c51.7,56.1,136.9,98.9,237.8,112.6c76.4,10.3,149.5,2.2,209.7-19.8c51.8,42.9,130.2,71,219.2,73c111.3,2.4,210.2-36.9,262.9-96.8
			c43.9,11.6,93.8,15.6,146.3,9.9c91.4-9.9,170.7-46.8,220.7-96.7c1.4,0.3,2.8,0.5,4.3,0.8c29,4.6,57.3,1,82.8-9
			c33.9,76.4,127.4,136.7,248.6,150.1c66.6,7.4,131.5-0.5,187.6-19.9c103.3,82.2,257.5,134.5,429.9,134.5
			c190.8,0,359.4-64,461.3-161.9c30.9,29.2,70.6,49.7,115.7,56.9c85.3,13.6,167-24.1,213.6-90.3c33.4,12.1,74.3,15.6,117.9,8.1
			c8.9-1.5,17.7-3.5,26.3-5.8c50.8,94.7,150.8,159.2,265.8,159.2c47.1,0,91.6-10.8,131.3-30c26.5,28.2,69.1,46.5,117.1,46.5
			c47.9,0,90.4-18.2,116.9-46.3c33,14.7,69.6,22.9,108.1,22.9c119.7,0,221-79.2,254.1-188.2c131.7-15.7,233.9-127.7,233.9-263.7
			C4354,3006.1,4313.4,2929.9,4250.3,2881.4z"/>
	</g>
	<g>
		<defs>
			<rect id="SVGID_00000016756979128049249940000006804514661201329822_" width="4000" height="4000"/>
		</defs>
		<clipPath id="SVGID_00000156568460293560327050000008938053781883267715_">
			<use xlink:href="#SVGID_00000016756979128049249940000006804514661201329822_"  style="overflow:visible;"/>
		</clipPath>
		<path style="clip-path:url(#SVGID_00000156568460293560327050000008938053781883267715_);fill:#7F6F90;" d="M4815.5,3391
			c-10.6-1.3-21-1.9-31.4-1.8c-17.9-87.2-88-158.5-181.2-173.3c-0.2,0-0.5-0.1-0.7-0.1c-7.9-57.9-52.8-106.2-113.5-115.9
			c-51.6-8.2-101.1,13.7-130.5,52.9c-35.6-27.6-78.4-46.9-126-54.6c-56.4-9-111.6-0.3-159.8,22.1c-32.8-15-69.6-25.6-109.5-30.5
			c-152.4-18.9-296.6,51.2-344.8,160.8c-18.9-11.2-40.1-19.1-63.1-22.8c-50.6-8.1-99.6,5.9-137.2,34.9
			c-22.6-86.4-94.2-155.7-188.1-170.7c-75.1-12-147.5,13.5-198.2,62.6c-25.1-32.8-62.4-56.4-106.4-63.4c-38.2-6.1-75.5,1.3-107,18.6
			c-23.6-45.6-67.8-79.8-122.3-88.5c-76.9-12.3-150,30-179.8,98.3c-23.4-11.3-48.9-19.5-75.9-23.8c-141-22.5-274,66.9-308.6,202.6
			c-19.4-20.7-46.6-34.1-77.2-35.1c-26.3-0.9-50.7,7.6-70.1,22.2c-46.5-65.6-122.1-109.5-208.8-112.3c-11.3-0.4-22.5,0-33.4,1
			c-72.3-125.8-206.1-212.3-361.7-217.4c-122.3-4-234.3,43.2-315.7,122.1c-16.7-37.6-53.7-64.3-97.5-65.8
			c-61-2-112.1,45.9-114.1,106.9c-0.1,2-0.1,4,0,6c-99.8,13.5-182.7,82.6-215.4,175.9c-1.4-0.3-2.9-0.5-4.3-0.8
			c-31-29.2-70.9-49.8-116.2-57c-0.2,0-0.5-0.1-0.7-0.1c-7.9-57.9-52.8-106.2-113.5-115.9c-51.6-8.2-101.1,13.7-130.5,52.9
			c-35.6-27.6-78.4-46.9-126-54.6c-56.4-9-111.6-0.3-159.8,22.1c-32.8-15-69.6-25.6-109.5-30.5c-152.4-18.9-296.6,51.2-344.8,160.8
			c-18.9-11.2-40.1-19.1-63.1-22.8c-97.5-15.6-189.2,50.9-204.7,148.4c-1.4,8.9-2.2,17.7-2.2,26.4c-65,1.6-121.6,49.3-132.2,115.8
			c-12,75,39.1,145.5,114.1,157.5c16.7,2.7,33.1,2.2,48.7-0.9c7.3,77.2,65.8,142.6,145.9,155.4c17.5,2.8,34.8,2.9,51.5,0.5
			c67.9,90.8,200.7,159.4,365.9,176.5c192.2,19.9,376.1-35.2,481-132c34.6,8.8,74,11.6,115.9,7c69.2-7.6,132.1-34,178-70.5
			c46.1,69.1,123.7,115.6,213,118.5c21.9,0.7,43.2-1.3,63.7-5.6c58,76.6,148.7,127.2,252.2,130.6c79.7,2.6,153.7-23.4,212.2-68.6
			c57.1,22.1,124,34.1,196.6,33c222.2-3.4,416-128.9,443.7-283.7c2.4,0.2,4.9,0.3,7.4,0.4c15.2,0.5,30-1,44.1-4.3c1,0.2,2,0.4,3,0.5
			c26.8,4.3,53.2,3.3,78.3-2.2c11.4,140.7,162.8,252.1,347.8,252.1c105.5,0,200.1-36.2,264-93.4c81.7,69.7,206.8,106.2,341,89.3
			c158.1-20,285.6-108.8,336.1-220.3c24.3,22.4,55.3,38.2,90.4,43.8c17.5,2.8,34.8,2.9,51.5,0.5c67.9,90.8,200.7,159.4,365.9,176.5
			c192.2,19.9,376.1-35.2,481-132c34.6,8.8,74,11.6,115.9,7c139.3-15.3,253.2-106.7,254.4-204.2c0-1.3,0-2.5,0-3.8
			c85.7-2.4,160.1-51.6,174.1-120.1C4983.5,3476.5,4915.4,3403.4,4815.5,3391z"/>
	</g>
	<g>
		<defs>
			<rect id="SVGID_00000145027801541254377590000006874607825152888231_" width="4000" height="4000"/>
		</defs>
		<clipPath id="SVGID_00000093159672004758877100000003709105685767571600_">
			<use xlink:href="#SVGID_00000145027801541254377590000006874607825152888231_"  style="overflow:visible;"/>
		</clipPath>
		<path style="clip-path:url(#SVGID_00000093159672004758877100000003709105685767571600_);fill:#645475;" d="M4356.6,3904.1
			c19.1-69-3.5-142.6-60.2-179.4c-52.1-33.8-118.5-27-168.6,11.7c-25.2-32.2-59.9-57.5-101.7-71.1c-72.4-23.7-148.3-6.7-203,38.4
			c-56.1-57.8-130.6-98.6-216.2-112.2c-74.1-11.8-146.7-1.7-211.1,25.6c-9.7-74.3-67.1-136.5-144.8-148.9
			c-80.3-12.8-156.5,31.6-187,103.2c-20.1-10.6-42.2-18.1-65.9-21.9c-116.2-18.5-225.4,60.6-244,176.8c-1.9,12.2-2.8,24.3-2.7,36.3
			c-40.9-62.6-107-108.4-186.6-121.1c-69.4-11.1-136.9,4.9-191.7,40.2c-49.3-96.8-156.1-171-290.9-188.8
			c-167.9-22.1-327.7,50.1-400.1,169.4c-21.7-9.8-45-16.9-69.6-20.8c-120.1-19.2-234.3,42.7-287.2,145.2
			c-18.3-18.7-42.5-31.9-70.3-36.3c-54.4-8.7-106.2,18.8-131,64.6c-38.4-86.6-118.6-152.7-219.1-168.8
			c-54.5-8.7-107.8-1.6-155.4,17.9C679,3562.8,558.8,3486.1,414,3463c-194.6-31.1-377.2,43.6-467.9,175.9
			c-137.5-17.5-266.1,64.9-310.1,192.5c-7.7-2-15.5-3.7-23.6-5c-131.4-21-254.9,68.5-275.8,199.9c-21,131.4,68.5,254.9,199.9,275.8
			c8.2,1.3,16.4,2.2,24.6,2.6c33.5,60.2,87.9,115.7,159.7,156.9c101.2,58.1,215.2,75.5,311.7,55.7c61.7,50.7,144.6,84.1,237.3,89.6
			c120.5,7.1,230.1-34.6,301.2-104.7c46.4,19.7,98.1,32.1,153,35.4c113.9,6.8,218.8-27.4,294-87.4c44.6,42.7,102.1,72.8,167.7,83.2
			c62.3,9.9,123.2,0.8,176.9-23c41.2,56.9,104.1,98,179,110c77.5,12.4,152.7-9,210.4-53.4c52,29.4,112.9,50,179.9,58.6
			c140.8,18,276.5-21,370.6-95.7c37.5,32.9,84.5,56,137.4,64.4c87.9,14,172.8-15.4,232.6-72.4c33.4,5.1,66.4,3.5,97.5-3.6
			c36.1,1.8,74.5-8.9,108.1-32.8c54,83.4,141.8,144.5,247.7,161.4c99,15.8,195-10,270.2-64.5c29.4,34.4,70.7,58.9,118.9,66.6
			c81.9,13.1,160.1-26.2,200.4-93.2c13.7,4.2,27.8,7.5,42.3,9.8c98.1,15.6,192.7-16.7,260-79.6c48.3,66,145.5,75.4,218.7,20.4
			c47-35.3,72.9-88.6,73.4-140.3c84.3-31.7,149.6-106.5,164.9-201.9C4491.6,4058.8,4441.9,3957.7,4356.6,3904.1z"/>
	</g>
</g>
<g>
	<polygon class="st7" points="3229.9,325 3258.1,340.4 3229.9,355.8 3214.5,384 3199.1,355.8 3170.9,340.4 3199.1,325 3214.5,296.8 
			"/>
	<polygon class="st7" points="2165.4,596.6 2193.6,612 2165.4,627.5 2150,655.7 2134.6,627.5 2106.4,612 2134.6,596.6 2150,568.5 	
		"/>
	<polygon class="st7" points="1414.1,175.7 1442.3,191.1 1414.1,206.6 1398.7,234.8 1383.3,206.6 1355.1,191.1 1383.3,175.7 
		1398.7,147.6 	"/>
	<polygon class="st7" points="628.6,606.4 656.8,621.8 628.6,637.2 613.2,665.4 597.8,637.2 569.6,621.8 597.8,606.4 613.2,578.2 	
		"/>
	<polygon class="st7" points="1362.8,782 1377,789.7 1362.8,797.4 1355.1,811.5 1347.4,797.4 1333.3,789.7 1347.4,782 1355.1,767.8 
			"/>
	<polygon class="st7" points="2422.8,139.8 2436.9,147.6 2422.8,155.3 2415.1,169.4 2407.3,155.3 2393.2,147.6 2407.3,139.8 
		2415.1,125.7 	"/>
	<polygon class="st7" points="3595,1036.4 3609.1,1044.1 3595,1051.8 3587.3,1065.9 3579.6,1051.8 3565.5,1044.1 3579.6,1036.4 
		3587.3,1022.2 	"/>
	<polygon class="st7" points="168.2,107.9 182.3,115.6 168.2,123.3 160.4,137.4 152.7,123.3 138.6,115.6 152.7,107.9 160.4,93.7 	
		"/>
	<polygon class="st7" points="3755.1,248.9 3769.2,256.6 3755.1,264.3 3747.4,278.4 3739.6,264.3 3725.5,256.6 3739.6,248.9 
		3747.4,234.8 	"/>
</g>
</svg>
