<?xml version="1.0" encoding="utf-8"?>
<!-- Generator: Adobe Illustrator 26.0.3, SVG Export Plug-In . SVG Version: 6.00 Build 0)  -->
<svg version="1.1" id="Layer_1" xmlns="http://www.w3.org/2000/svg" xmlns:xlink="http://www.w3.org/1999/xlink" x="0px" y="0px"
	 viewBox="0 0 4000 4000" style="enable-background:new 0 0 4000 4000;" xml:space="preserve">
<style type="text/css">
	
		.st0{clip-path:url(#SVGID_00000087411807554077170920000005773203636336977578_);fill:url(#SVGID_00000132046568048598192280000002491532439335224725_);}
	.st1{clip-path:url(#SVGID_00000087411807554077170920000005773203636336977578_);fill:#F7B497;}
	.st2{clip-path:url(#SVGID_00000087411807554077170920000005773203636336977578_);fill:#F59BA6;}
	.st3{clip-path:url(#SVGID_00000087411807554077170920000005773203636336977578_);fill:#D290A6;}
	.st4{clip-path:url(#SVGID_00000087411807554077170920000005773203636336977578_);fill:#AC8AAB;}
	.st5{clip-path:url(#SVGID_00000087411807554077170920000005773203636336977578_);fill:#7F6F90;}
	.st6{clip-path:url(#SVGID_00000087411807554077170920000005773203636336977578_);fill:#645475;}
	.st7{fill:#D5CCE5;}
</style>
<g>
	<defs>
		<rect id="SVGID_1_" y="0" width="4000" height="4000"/>
	</defs>
	<clipPath id="SVGID_00000181084073023828034770000008488917657245259445_">
		<use xlink:href="#SVGID_1_"  style="overflow:visible;"/>
	</clipPath>
	
		<linearGradient id="SVGID_00000039822465574100590630000015035703288624625538_" gradientUnits="userSpaceOnUse" x1="2000" y1="2308.384" x2="2000" y2="683.916">
		<stop  offset="0" style="stop-color:#F0BAA6"/>
		<stop  offset="0.1255" style="stop-color:#CCA49C"/>
		<stop  offset="0.3473" style="stop-color:#9B8891"/>
		<stop  offset="0.5535" style="stop-color:#787589"/>
		<stop  offset="0.7374" style="stop-color:#5E6A83"/>
		<stop  offset="0.8925" style="stop-color:#4D6480"/>
		<stop  offset="1" style="stop-color:#47627F"/>
	</linearGradient>
	
		<rect y="0" style="clip-path:url(#SVGID_00000181084073023828034770000008488917657245259445_);fill:url(#SVGID_00000039822465574100590630000015035703288624625538_);" width="4000" height="4000"/>
	<path style="clip-path:url(#SVGID_00000181084073023828034770000008488917657245259445_);fill:#F7B497;" d="M4356.59,2274.87
		c19.06,68.97-3.45,142.62-60.18,179.44c-52.14,33.84-118.45,27-168.59-11.69c-25.24,32.17-59.94,57.47-101.71,71.15
		c-72.37,23.7-148.29,6.73-203.01-38.37c-56.05,57.77-130.56,98.57-216.16,112.23c-74.13,11.83-146.69,1.7-211.08-25.55
		c-9.69,74.28-67.07,136.5-144.81,148.91c-80.29,12.81-156.49-31.63-187.02-103.18c-20.08,10.59-42.21,18.13-65.88,21.91
		c-116.21,18.54-225.45-60.63-243.99-176.84c-1.95-12.2-2.81-24.33-2.67-36.28c-40.85,62.6-106.96,108.39-186.59,121.1
		c-69.4,11.08-136.87-4.93-191.66-40.18c-49.29,96.79-156.13,170.99-290.9,188.76c-167.94,22.14-327.71-50.15-400.08-169.38
		c-21.69,9.77-45.01,16.88-69.63,20.81c-120.07,19.16-234.35-42.69-287.19-145.17c-18.28,18.68-42.49,31.88-70.29,36.31
		c-54.39,8.68-106.2-18.76-131-64.61c-38.42,86.65-118.56,152.71-219.13,168.76c-54.47,8.69-107.81,1.58-155.36-17.95
		C679.04,2616.23,558.79,2692.9,413.99,2716c-194.58,31.05-377.17-43.59-467.91-175.94c-137.5,17.53-266.09-64.92-310.06-192.51
		c-7.69,2.02-15.55,3.69-23.57,4.97c-131.38,20.97-254.88-68.54-275.84-199.92c-20.97-131.38,68.54-254.88,199.92-275.84
		c8.22-1.31,16.42-2.19,24.56-2.65c33.5-60.21,87.9-115.69,159.73-156.94c101.17-58.1,215.21-75.55,311.74-55.74
		c61.69-50.66,144.61-84.1,237.26-89.59c120.46-7.13,230.15,34.57,301.22,104.72c46.39-19.67,98.07-32.12,152.96-35.38
		c113.93-6.75,218.84,27.45,294.03,87.43c44.57-42.71,102.13-72.77,167.7-83.23c62.29-9.94,123.21-0.83,176.86,23
		c41.21-56.88,104.13-98.03,178.97-109.97c77.54-12.37,152.67,9.04,210.39,53.36c51.96-29.39,112.87-49.98,179.89-58.56
		c140.77-18.02,276.46,20.95,370.59,95.66c37.54-32.9,84.49-55.96,137.42-64.41c87.94-14.03,172.77,15.4,232.64,72.41
		c33.45-5.07,66.39-3.55,97.52,3.56c36.15-1.82,74.46,8.86,108.1,32.78c53.99-83.43,141.8-144.5,247.66-161.39
		c98.99-15.8,195,10.02,270.24,64.52c29.42-34.39,70.74-58.92,118.93-66.61c81.91-13.07,160.08,26.22,200.41,93.16
		c13.67-4.19,27.79-7.51,42.31-9.83c98.05-15.65,192.68,16.67,259.99,79.61c48.3-66.04,145.49-75.36,218.75-20.38
		c47.02,35.29,72.88,88.6,73.41,140.32c84.29,31.73,149.65,106.55,164.86,201.86C4491.56,2120.24,4441.89,2221.26,4356.59,2274.87z"
		/>
	<path style="clip-path:url(#SVGID_00000181084073023828034770000008488917657245259445_);fill:#F59BA6;" d="M-717.37,2218.45
		c10.56-1.31,21.04-1.88,31.38-1.78c17.92-87.25,88.05-158.48,181.21-173.34c0.24-0.04,0.48-0.07,0.72-0.11
		c7.93-57.87,52.79-106.23,113.45-115.91c51.65-8.24,101.15,13.74,130.48,52.87c35.57-27.62,78.38-46.95,125.99-54.55
		c56.43-9.01,111.59-0.27,159.81,22.09c32.77-15,69.64-25.57,109.49-30.51c152.39-18.87,296.6,51.19,344.81,160.77
		c18.85-11.19,40.09-19.08,63.06-22.75c50.6-8.07,99.62,5.94,137.25,34.91c22.58-86.41,94.24-155.69,188.1-170.67
		c75.09-11.98,147.51,13.48,198.24,62.61c25.14-32.8,62.39-56.4,106.42-63.43c38.25-6.1,75.54,1.28,107.03,18.63
		c23.58-45.61,67.75-79.8,122.34-88.51c76.95-12.28,150,30,179.75,98.27c23.45-11.31,48.92-19.46,75.95-23.77
		c141.01-22.5,274.02,66.88,308.62,202.58c19.36-20.74,46.64-34.07,77.24-35.06c26.26-0.85,50.67,7.55,70.12,22.24
		c46.54-65.64,122.14-109.51,208.77-112.31c11.3-0.37,22.47-0.02,33.44,1c72.3-125.76,206.07-212.32,361.7-217.36
		c122.27-3.96,234.32,43.18,315.68,122.15c16.66-37.58,53.7-64.34,97.54-65.76c61.02-1.97,112.09,45.89,114.07,106.91
		c0.07,2.01,0.07,4.02,0.03,6.01c99.8,13.51,182.73,82.56,215.37,175.85c1.43-0.28,2.87-0.54,4.31-0.8
		c31.05-29.22,70.89-49.76,116.17-56.99c0.24-0.04,0.48-0.07,0.72-0.11c7.93-57.87,52.79-106.23,113.45-115.91
		c51.65-8.24,101.15,13.74,130.48,52.87c35.57-27.62,78.38-46.95,125.99-54.55c56.43-9.01,111.59-0.27,159.81,22.09
		c32.77-15,69.64-25.57,109.49-30.51c152.39-18.87,296.6,51.19,344.81,160.77c18.85-11.19,40.09-19.08,63.06-22.75
		c97.5-15.56,189.15,50.87,204.71,148.37c1.42,8.88,2.15,17.72,2.24,26.45c64.97,1.63,121.59,49.33,132.2,115.82
		c11.97,75.01-39.13,145.51-114.14,157.48c-16.65,2.66-33.07,2.2-48.68-0.93c-7.26,77.16-65.81,142.65-145.88,155.43
		c-17.52,2.8-34.84,2.86-51.54,0.54c-67.9,90.8-200.72,159.35-365.91,176.46c-192.21,19.91-376.15-35.22-481.05-132.04
		c-34.6,8.82-73.99,11.64-115.87,7.04c-69.18-7.59-132.09-33.97-178.05-70.53c-46.1,69.07-123.71,115.64-213.04,118.53
		c-21.88,0.71-43.22-1.26-63.72-5.58c-57.98,76.56-148.73,127.25-252.19,130.6c-79.7,2.58-153.71-23.36-212.21-68.63
		c-57.11,22.1-124.03,34.14-196.6,33.02c-222.21-3.43-416.05-128.94-443.67-283.71c-2.44,0.18-4.9,0.33-7.37,0.41
		c-15.18,0.49-29.97-1.02-44.1-4.29c-0.99,0.17-1.98,0.35-2.98,0.51c-26.81,4.28-53.25,3.28-78.26-2.21
		c-11.39,140.7-162.75,252.09-347.84,252.09c-105.51,0-200.07-36.2-263.99-93.4c-81.68,69.74-206.82,106.25-341.03,89.26
		c-158.13-20.01-285.55-108.81-336.05-220.28c-24.33,22.43-55.31,38.19-90.44,43.79c-17.52,2.8-34.84,2.86-51.54,0.53
		c-67.9,90.8-200.72,159.35-365.91,176.46c-192.21,19.91-376.15-35.22-481.05-132.04c-34.6,8.82-73.99,11.64-115.87,7.04
		c-139.29-15.29-253.19-106.7-254.41-204.19c-0.02-1.28,0-2.54,0.02-3.81c-85.71-2.4-160.09-51.64-174.12-120.08
		C-885.33,2303.99-817.27,2230.87-717.37,2218.45z"/>
	<path style="clip-path:url(#SVGID_00000181084073023828034770000008488917657245259445_);fill:#D290A6;" d="M4250.31,2884.73
		c2.42,10.34,3.71,21.12,3.71,32.21c0,77.64-62.94,140.59-140.59,140.59c-24.5,0-47.54-6.27-67.6-17.3
		c-33.91,85.28-117.19,145.57-214.55,145.57c-58.71,0-112.3-21.94-153.03-58.04c-43.24,69.9-120.58,116.47-208.8,116.47
		c-112.35,0-207.07-75.52-236.15-178.57c-11.25,5.3-23.8,8.27-37.06,8.27c-48.1,0-87.08-38.99-87.08-87.09
		c0-3.12,0.17-6.2,0.49-9.24c-39.26-11.11-74.52-31.75-103.12-59.26c-31.01,48.11-81.56,83.33-142.53,93.06
		c-8.55,1.37-17.07,2.18-25.51,2.49c0.62,2.54,1.17,5.11,1.59,7.73c8.4,52.63-27.46,102.11-80.09,110.51
		c-40.18,6.41-78.49-12.98-98.12-45.92c-21.99,14.75-46.04,27.78-71.9,38.62c-128,53.64-263.15,38.24-343.86-29.79
		c-59.54,71.88-149.8,117.26-250.4,116.14c-73.28-0.82-140.51-26.2-194.02-68.2c-14.1,23.97-38.4,41.7-68.01,46.42
		c-52.63,8.4-102.11-27.46-110.51-80.09c-2.32-14.52-1.25-28.79,2.59-42.03c-17.52,2.76-35.51,4.12-53.84,3.92
		c-102.77-1.15-193.67-50.59-251.44-126.49c-34.84,26.95-89.5,28.48-137.76,1.77c-38.21,58.81-104.77,97.39-180.09,96.55
		c-38.23-0.43-73.98-10.96-104.74-29.03c-61.46,56.59-143.78,90.78-233.92,89.77c-41-0.46-80.22-8.16-116.47-21.88
		c-10.33,29.1-30.5,52.14-58.14,62.29c-45.78,16.81-97.76-6.96-128.31-54.44c-47.17,29.32-102.98,46-162.64,45.34
		c-110.06-1.23-205.69-61.17-257.51-149.72c-48.24,30.96-106.77,31.55-142.31-2.35c-39.5-37.67-36.78-104.75,3.97-156.04
		c-56.18-27.51-94.58-85.54-93.84-152.26c0.47-42.03,16.4-80.27,42.32-109.38c-20.78-49.94,6.55-112.29,64.53-143.12
		c43.29-23.02,92.05-22.28,126.85-1.9c51.71-56.12,136.88-98.94,237.79-112.55c76.41-10.3,149.49-2.17,209.71,19.78
		c51.82-42.89,130.24-71.04,219.19-72.96c111.32-2.41,210.17,36.88,262.9,96.79c43.86-11.64,93.84-15.61,146.3-9.95
		c91.4,9.86,170.71,46.82,220.67,96.67c1.42-0.27,2.85-0.52,4.29-0.75c28.96-4.62,57.33-1.03,82.76,9.03
		c33.86-76.35,127.45-136.7,248.6-150.14c66.55-7.38,131.52,0.48,187.58,19.88c103.3-82.25,257.54-134.46,429.85-134.46
		c190.79,0,359.41,64.01,461.27,161.92c30.89-29.2,70.58-49.73,115.71-56.93c85.32-13.62,166.98,24.06,213.57,90.26
		c33.45-12.05,74.28-15.57,117.85-8.08c8.94,1.54,17.71,3.49,26.27,5.82c50.83-94.74,150.8-159.18,265.84-159.18
		c47.08,0,91.63,10.8,131.33,30.04c26.49-28.22,69.1-46.53,117.15-46.53c47.92,0,90.42,18.21,116.93,46.29
		c33.01-14.72,69.57-22.92,108.05-22.92c119.74,0,220.96,79.25,254.1,188.16c131.72,15.68,233.86,127.74,233.86,263.68
		C4354.01,2759.94,4313.37,2836.17,4250.31,2884.73z"/>
	<path style="clip-path:url(#SVGID_00000181084073023828034770000008488917657245259445_);fill:#AC8AAB;" d="M4250.31,2881.35
		c2.42-10.34,3.71-21.12,3.71-32.21c0-77.64-62.94-140.59-140.59-140.59c-24.5,0-47.54,6.27-67.6,17.3
		c-33.91-85.28-117.19-145.57-214.55-145.57c-58.71,0-112.3,21.94-153.03,58.04c-43.24-69.9-120.58-116.47-208.8-116.47
		c-112.35,0-207.07,75.52-236.15,178.57c-11.25-5.3-23.8-8.27-37.06-8.27c-48.1,0-87.08,38.99-87.08,87.09
		c0,3.12,0.17,6.2,0.49,9.24c-39.26,11.11-74.52,31.75-103.12,59.26c-31.01-48.11-81.56-83.33-142.53-93.06
		c-8.55-1.37-17.07-2.18-25.51-2.49c0.62-2.54,1.17-5.11,1.59-7.73c8.4-52.63-27.46-102.11-80.09-110.51
		c-40.18-6.41-78.49,12.98-98.12,45.92c-21.99-14.75-46.04-27.78-71.9-38.62c-128-53.64-263.15-38.24-343.86,29.79
		c-59.54-71.88-149.8-117.26-250.4-116.14c-73.28,0.82-140.51,26.2-194.02,68.2c-14.1-23.97-38.4-41.7-68.01-46.42
		c-52.63-8.4-102.11,27.46-110.51,80.09c-2.32,14.52-1.25,28.79,2.59,42.03c-17.52-2.76-35.51-4.12-53.84-3.92
		c-102.77,1.15-193.67,50.59-251.44,126.49c-34.84-26.95-89.5-28.48-137.76-1.77c-38.21-58.81-104.77-97.39-180.09-96.55
		c-38.23,0.43-73.98,10.96-104.74,29.03c-61.46-56.59-143.78-90.78-233.92-89.77c-41,0.46-80.22,8.16-116.47,21.88
		c-10.33-29.1-30.5-52.14-58.14-62.29c-45.78-16.81-97.76,6.96-128.31,54.44c-47.17-29.32-102.98-46-162.64-45.34
		c-110.06,1.23-205.69,61.17-257.51,149.72c-48.24-30.96-106.77-31.55-142.31,2.35c-39.5,37.67-36.78,104.75,3.97,156.04
		c-56.18,27.51-94.58,85.54-93.84,152.26c0.47,42.03,16.4,80.27,42.32,109.38c-20.78,49.94,6.55,112.29,64.53,143.12
		c43.29,23.02,92.05,22.28,126.85,1.9c51.71,56.12,136.88,98.94,237.79,112.55c76.41,10.3,149.49,2.17,209.71-19.78
		c51.82,42.89,130.24,71.04,219.19,72.96c111.32,2.41,210.17-36.88,262.9-96.79c43.86,11.64,93.84,15.61,146.3,9.95
		c91.4-9.86,170.71-46.82,220.67-96.67c1.42,0.27,2.85,0.52,4.29,0.75c28.96,4.62,57.33,1.03,82.76-9.03
		c33.86,76.35,127.45,136.7,248.6,150.14c66.55,7.38,131.52-0.48,187.58-19.88c103.3,82.25,257.54,134.46,429.85,134.46
		c190.79,0,359.41-64.01,461.27-161.92c30.89,29.2,70.58,49.73,115.71,56.93c85.32,13.62,166.98-24.06,213.57-90.26
		c33.45,12.05,74.28,15.58,117.85,8.08c8.94-1.54,17.71-3.49,26.27-5.82c50.83,94.74,150.8,159.18,265.84,159.18
		c47.08,0,91.63-10.8,131.33-30.04c26.49,28.22,69.1,46.53,117.15,46.53c47.92,0,90.42-18.21,116.93-46.29
		c33.01,14.72,69.57,22.92,108.05,22.92c119.74,0,220.96-79.25,254.1-188.16c131.72-15.68,233.86-127.74,233.86-263.68
		C4354.01,3006.14,4313.37,2929.91,4250.31,2881.35z"/>
	<path style="clip-path:url(#SVGID_00000181084073023828034770000008488917657245259445_);fill:#7F6F90;" d="M4815.49,3390.96
		c-10.56-1.31-21.04-1.88-31.38-1.78c-17.92-87.25-88.05-158.48-181.21-173.34c-0.24-0.04-0.48-0.07-0.72-0.11
		c-7.93-57.87-52.79-106.23-113.45-115.91c-51.65-8.24-101.15,13.74-130.48,52.87c-35.57-27.62-78.38-46.95-125.99-54.55
		c-56.43-9.01-111.59-0.27-159.81,22.09c-32.77-15-69.64-25.57-109.49-30.51c-152.4-18.87-296.6,51.19-344.81,160.77
		c-18.85-11.19-40.09-19.08-63.06-22.75c-50.6-8.07-99.62,5.94-137.25,34.91c-22.58-86.41-94.24-155.69-188.1-170.67
		c-75.09-11.98-147.51,13.48-198.24,62.61c-25.14-32.8-62.39-56.4-106.42-63.43c-38.25-6.1-75.54,1.28-107.03,18.63
		c-23.58-45.61-67.75-79.8-122.33-88.51c-76.95-12.28-150,30-179.75,98.27c-23.45-11.31-48.92-19.46-75.95-23.77
		c-141.01-22.5-274.02,66.88-308.62,202.58c-19.36-20.74-46.64-34.07-77.24-35.06c-26.26-0.85-50.67,7.55-70.12,22.24
		c-46.54-65.64-122.14-109.51-208.77-112.31c-11.3-0.37-22.47-0.02-33.44,1c-72.3-125.76-206.07-212.32-361.7-217.36
		c-122.27-3.96-234.32,43.18-315.68,122.15c-16.66-37.58-53.7-64.34-97.54-65.76c-61.02-1.97-112.09,45.89-114.07,106.91
		c-0.07,2.01-0.07,4.02-0.03,6.01c-99.8,13.51-182.73,82.56-215.37,175.85c-1.43-0.28-2.87-0.54-4.31-0.8
		c-31.05-29.22-70.89-49.76-116.17-56.99c-0.24-0.04-0.48-0.07-0.72-0.11c-7.93-57.87-52.79-106.23-113.45-115.91
		c-51.65-8.24-101.15,13.74-130.48,52.87c-35.57-27.62-78.38-46.95-125.99-54.55c-56.43-9.01-111.59-0.27-159.81,22.09
		c-32.77-15-69.64-25.57-109.49-30.51c-152.39-18.87-296.6,51.19-344.81,160.77c-18.85-11.19-40.09-19.08-63.06-22.75
		c-97.5-15.56-189.15,50.87-204.71,148.37c-1.42,8.88-2.15,17.72-2.24,26.45c-64.97,1.63-121.59,49.33-132.2,115.82
		c-11.97,75.01,39.13,145.51,114.14,157.48c16.65,2.66,33.07,2.2,48.68-0.93c7.26,77.16,65.81,142.65,145.88,155.43
		c17.52,2.8,34.84,2.86,51.54,0.54c67.9,90.8,200.72,159.35,365.91,176.46c192.21,19.91,376.15-35.22,481.05-132.04
		c34.6,8.82,73.99,11.64,115.87,7.04c69.18-7.59,132.09-33.97,178.05-70.53c46.1,69.07,123.71,115.64,213.04,118.53
		c21.88,0.71,43.22-1.26,63.72-5.58c57.98,76.56,148.73,127.25,252.19,130.6c79.7,2.58,153.71-23.36,212.21-68.63
		c57.11,22.1,124.03,34.14,196.6,33.02c222.21-3.43,416.05-128.94,443.67-283.71c2.44,0.18,4.9,0.33,7.37,0.41
		c15.18,0.49,29.97-1.02,44.1-4.29c0.99,0.17,1.98,0.35,2.98,0.51c26.81,4.28,53.25,3.28,78.26-2.21
		c11.39,140.7,162.75,252.09,347.84,252.09c105.51,0,200.07-36.2,263.99-93.39c81.68,69.74,206.81,106.25,341.03,89.26
		c158.13-20.01,285.55-108.81,336.05-220.27c24.33,22.43,55.31,38.19,90.44,43.79c17.52,2.8,34.84,2.86,51.54,0.54
		c67.9,90.8,200.72,159.35,365.91,176.46c192.21,19.91,376.15-35.22,481.05-132.04c34.6,8.82,73.99,11.64,115.87,7.04
		c139.29-15.29,253.19-106.7,254.41-204.19c0.02-1.28,0-2.54-0.02-3.81c85.71-2.4,160.09-51.64,174.12-120.08
		C4983.45,3476.5,4915.39,3403.37,4815.49,3390.96z"/>
	<path style="clip-path:url(#SVGID_00000181084073023828034770000008488917657245259445_);fill:#645475;" d="M4356.59,3904.12
		c19.06-68.97-3.45-142.62-60.18-179.44c-52.14-33.84-118.45-27-168.59,11.69c-25.24-32.17-59.94-57.47-101.71-71.15
		c-72.37-23.7-148.29-6.73-203.01,38.37c-56.05-57.77-130.56-98.57-216.16-112.23c-74.13-11.83-146.69-1.7-211.08,25.55
		c-9.69-74.28-67.07-136.5-144.81-148.91c-80.29-12.81-156.49,31.63-187.02,103.18c-20.08-10.59-42.21-18.13-65.88-21.91
		c-116.21-18.54-225.45,60.63-243.99,176.84c-1.95,12.2-2.81,24.33-2.67,36.28c-40.85-62.6-106.96-108.39-186.59-121.1
		c-69.4-11.08-136.87,4.93-191.66,40.18c-49.29-96.79-156.13-170.99-290.9-188.76c-167.94-22.14-327.71,50.15-400.08,169.38
		c-21.69-9.77-45.01-16.88-69.63-20.81c-120.07-19.16-234.35,42.69-287.19,145.17c-18.28-18.68-42.49-31.88-70.29-36.31
		c-54.39-8.68-106.2,18.76-131,64.61c-38.42-86.65-118.56-152.71-219.13-168.76c-54.47-8.69-107.81-1.58-155.36,17.95
		c-70.63-101.18-190.88-177.84-335.68-200.95c-194.58-31.05-377.17,43.59-467.91,175.94c-137.5-17.53-266.09,64.92-310.06,192.51
		c-7.69-2.02-15.55-3.69-23.57-4.97c-131.38-20.97-254.88,68.54-275.84,199.92c-20.97,131.38,68.54,254.88,199.92,275.84
		c8.22,1.31,16.42,2.19,24.56,2.65c33.5,60.21,87.9,115.69,159.73,156.94c101.17,58.1,215.21,75.55,311.74,55.74
		c61.69,50.66,144.61,84.1,237.26,89.59c120.46,7.13,230.15-34.57,301.22-104.72c46.39,19.67,98.07,32.12,152.96,35.38
		c113.93,6.75,218.84-27.44,294.03-87.43c44.57,42.71,102.13,72.77,167.7,83.23c62.29,9.94,123.21,0.83,176.86-23
		c41.21,56.88,104.13,98.03,178.97,109.97c77.54,12.37,152.67-9.04,210.39-53.36c51.96,29.39,112.87,49.98,179.89,58.56
		c140.77,18.02,276.46-20.95,370.59-95.66c37.54,32.9,84.49,55.96,137.42,64.41c87.94,14.03,172.77-15.4,232.64-72.41
		c33.45,5.07,66.39,3.55,97.52-3.56c36.15,1.82,74.46-8.86,108.1-32.78c53.99,83.43,141.8,144.5,247.66,161.39
		c98.99,15.8,195-10.02,270.24-64.52c29.42,34.39,70.74,58.92,118.93,66.61c81.91,13.07,160.08-26.22,200.41-93.16
		c13.67,4.19,27.79,7.51,42.31,9.83c98.05,15.65,192.68-16.67,259.99-79.61c48.3,66.04,145.49,75.36,218.75,20.38
		c47.02-35.29,72.88-88.6,73.41-140.32c84.29-31.73,149.65-106.55,164.86-201.86C4491.56,4058.76,4441.89,3957.74,4356.59,3904.12z"
		/>
</g>
<polygon class="st7" points="3229.88,325.01 3258.06,340.42 3229.88,355.84 3214.46,384.02 3199.05,355.84 3170.87,340.42 
	3199.05,325.01 3214.46,296.83 "/>
<polygon class="st7" points="2165.39,596.64 2193.57,612.05 2165.39,627.46 2149.98,655.65 2134.57,627.46 2106.38,612.05 
	2134.57,596.64 2149.98,568.46 "/>
<polygon class="st7" points="1414.14,175.74 1442.32,191.15 1414.14,206.57 1398.72,234.75 1383.31,206.57 1355.13,191.15 
	1383.31,175.74 1398.72,147.56 "/>
<polygon class="st7" points="628.62,606.43 656.8,621.84 628.62,637.25 613.21,665.43 597.8,637.25 569.61,621.84 597.8,606.43 
	613.21,578.24 "/>
<polygon class="st7" points="1362.85,781.95 1376.97,789.67 1362.85,797.4 1355.13,811.51 1347.41,797.4 1333.29,789.67 
	1347.41,781.95 1355.13,767.84 "/>
<polygon class="st7" points="2422.77,139.84 2436.89,147.56 2422.77,155.28 2415.05,169.39 2407.33,155.28 2393.21,147.56 
	2407.33,139.84 2415.05,125.72 "/>
<polygon class="st7" points="3595.03,1036.37 3609.15,1044.09 3595.03,1051.81 3587.31,1065.93 3579.59,1051.81 3565.48,1044.09 
	3579.59,1036.37 3587.31,1022.25 "/>
<polygon class="st7" points="168.16,107.86 182.28,115.58 168.16,123.3 160.44,137.42 152.72,123.3 138.6,115.58 152.72,107.86 
	160.44,93.74 "/>
<polygon class="st7" points="3755.07,248.86 3769.19,256.59 3755.07,264.31 3747.35,278.42 3739.63,264.31 3725.51,256.59 
	3739.63,248.86 3747.35,234.75 "/>
</svg>
